<?xml version="1.0" standalone="no"?>
<!DOCTYPE svg PUBLIC "-//W3C//DTD SVG 20010904//EN"
 "http://www.w3.org/TR/2001/REC-SVG-20010904/DTD/svg10.dtd">
<svg version="1.0" xmlns="http://www.w3.org/2000/svg"
 width="357.000000pt" height="181.000000pt" viewBox="0 0 357.000000 181.000000"
 preserveAspectRatio="xMidYMid meet">

<g transform="translate(0.000000,181.000000) scale(0.100000,-0.100000)"
fill="#000000" stroke="none">
<path d="M1533 1752 c-16 -20 -47 -66 -68 -102 -22 -36 -59 -86 -83 -112 l-45
-48 -282 0 c-269 0 -284 -1 -308 -20 -23 -19 -47 -72 -47 -107 0 -10 66 -13
296 -13 l297 0 79 76 c119 113 246 164 410 164 162 0 283 -50 407 -165 l79
-75 286 0 286 0 0 36 c0 28 -8 44 -34 70 l-34 34 -277 -1 -278 -1 -24 28 c-13
16 -46 63 -73 104 -27 41 -65 96 -85 122 l-36 47 -218 0 -218 1 -30 -38z"/>
<path d="M1130 1600 l0 -40 85 0 c79 0 86 2 110 27 44 48 36 53 -85 53 l-110
0 0 -40z"/>
<path d="M2376 1624 c-3 -9 -6 -27 -6 -40 l0 -24 155 0 155 0 0 28 c0 48 -13
52 -161 52 -116 0 -138 -2 -143 -16z"/>
<path d="M867 1623 c-4 -3 -7 -19 -7 -35 l0 -28 90 0 90 0 0 35 0 35 -83 0
c-46 0 -87 -3 -90 -7z"/>
<path d="M1638 1481 c-84 -27 -143 -66 -214 -137 -137 -139 -177 -336 -107
-525 22 -59 40 -87 96 -146 78 -82 140 -121 241 -152 222 -68 461 46 577 275
40 79 43 92 47 181 8 168 -48 293 -181 404 -97 82 -175 112 -302 116 -78 2
-113 -1 -157 -16z m283 -159 c71 -28 142 -96 176 -169 23 -49 27 -72 27 -148
1 -79 -3 -98 -28 -152 -98 -212 -395 -265 -560 -99 -87 86 -116 189 -92 319
26 137 100 217 241 263 56 19 168 12 236 -14z"/>
<path d="M1731 1249 c-96 -19 -187 -120 -198 -220 -24 -234 257 -373 418 -206
59 62 81 112 81 183 1 72 -18 117 -70 169 -66 66 -143 91 -231 74z m7 -121
c24 -24 14 -74 -19 -102 -17 -14 -38 -26 -48 -26 -49 0 -56 67 -12 111 31 31
59 37 79 17z"/>
<path d="M700 912 c0 -351 0 -359 23 -402 40 -80 32 -79 464 -82 268 -2 386 1
393 8 8 8 -7 19 -57 40 -53 23 -86 47 -155 114 -97 95 -125 144 -159 281 -27
103 -22 213 14 318 13 39 21 73 19 76 -3 3 -126 5 -274 5 l-268 0 0 -358z"/>
<path d="M2342 1188 c48 -144 35 -331 -33 -458 -59 -112 -192 -232 -287 -261
-95 -28 -41 -34 334 -37 249 -1 378 1 395 9 15 6 40 24 55 40 l29 30 3 380 3
379 -264 0 -263 0 28 -82z m318 -38 c24 -24 26 -63 4 -84 -25 -25 -72 -24 -91
2 -29 37 1 102 47 102 11 0 29 -9 40 -20z"/>
<path d="M2784 238 c-17 -18 -41 -48 -53 -66 l-22 -32 -42 52 c-22 29 -45 56
-51 60 -13 9 -23 -88 -18 -180 3 -53 6 -62 23 -62 17 0 19 8 19 68 l0 67 33
-39 33 -38 27 36 c16 20 32 36 38 36 5 0 9 -27 9 -60 0 -53 2 -60 20 -60 19 0
20 7 20 125 0 69 -1 125 -3 125 -2 0 -17 -15 -33 -32z"/>
<path d="M3380 243 c0 -20 5 -23 35 -23 l35 0 0 -100 c0 -97 1 -100 23 -100
21 0 22 3 22 97 l0 98 33 3 c23 2 32 8 32 22 0 17 -10 19 -90 22 -88 3 -90 2
-90 -19z"/>
<path d="M0 235 c0 -22 4 -25 35 -25 l35 0 0 -100 c0 -93 1 -100 20 -100 19 0
20 7 20 100 l0 100 35 0 c31 0 35 3 35 25 0 25 -1 25 -90 25 -89 0 -90 0 -90
-25z"/>
<path d="M260 156 c-27 -57 -50 -111 -50 -120 0 -26 39 -19 50 9 8 22 15 25
58 25 42 0 50 -3 60 -25 7 -15 20 -25 32 -25 25 0 25 -3 -4 73 -32 85 -74 167
-86 167 -5 0 -32 -47 -60 -104z m73 -3 c2 -10 8 -26 12 -35 6 -15 2 -18 -24
-18 -34 0 -37 6 -19 45 13 29 24 32 31 8z"/>
<path d="M500 138 l0 -123 25 0 c23 0 25 4 25 48 0 26 4 47 9 47 5 0 27 -20
49 -45 23 -27 48 -45 61 -45 29 0 27 8 -19 69 -22 29 -40 59 -40 66 0 6 13 30
30 53 43 59 18 64 -39 8 -26 -25 -50 -46 -54 -46 -4 0 -7 20 -7 45 0 38 -3 45
-20 45 -19 0 -20 -7 -20 -122z"/>
<path d="M760 134 c0 -126 0 -126 23 -120 12 3 50 6 85 6 55 0 62 2 62 20 0
18 -7 20 -61 20 -60 0 -60 0 -57 28 3 24 7 27 46 30 34 3 42 7 42 23 0 16 -7
19 -45 19 -43 0 -45 1 -45 30 l0 30 60 0 c53 0 60 2 60 20 0 18 -7 20 -85 20
l-85 0 0 -126z"/>
<path d="M1110 237 c0 -18 5 -22 33 -22 l32 0 3 -102 c2 -94 4 -103 22 -103
18 0 20 9 22 102 l3 103 26 3 c17 2 29 11 32 23 5 18 -1 19 -84 19 -86 0 -89
-1 -89 -23z"/>
<path d="M1360 166 c0 -121 7 -156 31 -156 16 0 19 8 19 55 l0 55 50 0 50 0 0
-55 c0 -48 2 -55 20 -55 19 0 20 7 20 125 0 118 -1 125 -20 125 -17 0 -20 -7
-20 -50 l0 -50 -50 0 -50 0 0 50 c0 47 -2 50 -25 50 -25 0 -25 0 -25 -94z"/>
<path d="M1650 140 l0 -120 80 0 c73 0 80 2 80 20 0 18 -7 20 -65 20 l-65 0 0
30 c0 29 1 30 50 30 36 0 50 4 50 14 0 17 -22 26 -66 26 -31 0 -34 3 -34 30
l0 30 65 0 c58 0 65 2 65 20 0 18 -7 20 -80 20 l-80 0 0 -120z"/>
<path d="M2000 138 c0 -120 1 -128 20 -128 17 0 19 8 22 67 l3 66 30 -42 29
-43 31 36 c16 20 33 36 38 36 4 0 7 -27 7 -60 0 -53 2 -60 20 -60 19 0 20 7
20 128 l-1 127 -32 -35 c-18 -19 -42 -48 -55 -65 l-23 -30 -22 29 c-12 17 -37
46 -54 65 l-32 36 -1 -127z"/>
<path d="M2356 241 c-40 -26 -55 -57 -56 -109 0 -37 6 -50 34 -78 75 -75 186
-18 186 97 0 33 -6 47 -34 75 -40 40 -84 45 -130 15z m98 -42 c21 -16 26 -29
26 -64 0 -47 -12 -62 -58 -71 -25 -5 -36 -1 -56 19 -34 34 -34 80 -1 112 30
30 54 31 89 4z"/>
<path d="M2900 138 l0 -123 80 3 c71 3 80 6 80 23 0 17 -7 19 -60 19 l-60 0 0
30 c0 29 2 30 45 30 38 0 45 3 45 20 0 17 -7 20 -45 20 -43 0 -45 1 -45 30 l0
30 60 0 c53 0 60 2 60 20 0 18 -7 20 -80 20 l-80 0 0 -122z"/>
<path d="M3130 141 c0 -110 1 -119 20 -124 19 -5 20 0 20 66 l1 72 27 -31 c15
-17 44 -50 64 -73 20 -24 40 -41 45 -38 4 3 7 59 5 126 -3 112 -5 121 -23 121
-17 0 -19 -7 -19 -72 l-1 -73 -27 31 c-15 18 -42 50 -60 73 -18 23 -37 41 -43
41 -5 0 -9 -51 -9 -119z"/>
</g>
</svg>
